<svg class="icon-align-vertical-base" width="24px" height="24px" viewBox="0 0 24 24"><path d="M21.312,24 L24,24 L24,21.312 L21.312,21.312 L21.312,24 Z M21.312,18.688 L24,18.688 L24,16 L21.312,16 L21.312,18.688 Z M21.312,8 L24,8 L24,5.312 L21.312,5.312 L21.312,8 Z M21.312,2.688 L24,2.688 L24,0 L21.312,0 L21.312,2.688 Z M16,24 L18.688,24 L18.688,21.312 L16,21.312 L16,24 Z M16,2.688 L18.688,2.688 L18.688,0 L16,0 L16,2.688 Z M10.688,24 L13.3135238,24 L13.3135238,21.312 L10.688,21.312 L10.688,24 Z M10.688,18.688 L13.3135238,18.688 L13.3135238,16 L10.688,16 L10.688,18.688 Z M10.6864762,8 L13.312,8 L13.312,5.312 L10.6864762,5.312 L10.6864762,8 Z M10.6864762,2.688 L13.312,2.688 L13.312,0 L10.6864762,0 L10.6864762,2.688 Z M5.312,24 L8,24 L8,21.312 L5.312,21.312 L5.312,24 Z M5.312,2.688 L8,2.688 L8,0 L5.312,0 L5.312,2.688 Z M0,24 L2.688,24 L2.688,21.312 L0,21.312 L0,24 Z M0,18.688 L2.688,18.688 L2.688,16 L0,16 L0,18.688 Z M0,8 L2.688,8 L2.688,5.312 L0,5.312 L0,8 Z M0,2.688 L2.688,2.688 L2.688,0 L0,0 L0,2.688 Z" id="Fill-179" fill="#7FC2BB"></path><polygon id="Fill-179" fill="#002F36" points="0 13.3135238 24 13.3135238 24 10.688 0 10.688"></polygon></svg>